<?xml version="1.0" encoding="UTF-8"?>
<svg xmlns="http://www.w3.org/2000/svg" xmlns:xlink="http://www.w3.org/1999/xlink" width="285px" height="80px" viewBox="0 0 284 80" version="1.1">
<g id="surface1">
<path style=" stroke:none;fill-rule:nonzero;fill:rgb(100%,86.666667%,0%);fill-opacity:1;" d="M 0 12.800781 C 0 5.730469 5.710938 0 12.757812 0 L 271.078125 0 C 278.121094 0 283.832031 5.730469 283.832031 12.800781 L 283.832031 67.199219 C 283.832031 74.269531 278.121094 80 271.078125 80 L 12.757812 80 C 5.710938 80 0 74.269531 0 67.199219 Z M 0 12.800781 "/>
<path style=" stroke:none;fill-rule:nonzero;fill:rgb(5.098039%,4.705882%,13.333333%);fill-opacity:1;" d="M 57.070312 26.308594 L 57.035156 26.289062 L 56.957031 26.265625 C 56.988281 26.292969 57.027344 26.308594 57.070312 26.308594 Z M 57.070312 26.308594 "/>
<path style=" stroke:none;fill-rule:nonzero;fill:rgb(5.098039%,4.705882%,13.333333%);fill-opacity:1;" d="M 57.585938 29.96875 L 57.546875 29.980469 Z M 57.585938 29.96875 "/>
<path style=" stroke:none;fill-rule:nonzero;fill:rgb(5.098039%,4.705882%,13.333333%);fill-opacity:1;" d="M 57.085938 26.304688 C 57.082031 26.304688 57.078125 26.300781 57.074219 26.300781 C 57.074219 26.304688 57.074219 26.304688 57.074219 26.308594 C 57.078125 26.308594 57.082031 26.308594 57.085938 26.304688 Z M 57.085938 26.304688 "/>
<path style=" stroke:none;fill-rule:nonzero;fill:rgb(5.098039%,4.705882%,13.333333%);fill-opacity:1;" d="M 57.074219 26.3125 L 57.078125 26.3125 L 57.078125 26.308594 Z M 57.074219 26.3125 "/>
<path style=" stroke:none;fill-rule:nonzero;fill:rgb(5.098039%,4.705882%,13.333333%);fill-opacity:1;" d="M 57.554688 29.960938 L 57.613281 29.925781 L 57.636719 29.914062 L 57.65625 29.894531 C 57.617188 29.910156 57.582031 29.933594 57.554688 29.960938 Z M 57.554688 29.960938 "/>
<path style=" stroke:none;fill-rule:nonzero;fill:rgb(5.098039%,4.705882%,13.333333%);fill-opacity:1;" d="M 57.171875 26.390625 L 57.113281 26.335938 L 57.074219 26.3125 C 57.097656 26.351562 57.132812 26.378906 57.171875 26.390625 Z M 57.171875 26.390625 "/>
<path style=" stroke:none;fill-rule:nonzero;fill:rgb(5.098039%,4.705882%,13.333333%);fill-opacity:1;" d="M 42.667969 61.882812 C 42.621094 61.902344 42.582031 61.933594 42.550781 61.976562 L 42.585938 61.953125 C 42.613281 61.929688 42.644531 61.902344 42.667969 61.882812 Z M 42.667969 61.882812 "/>
<path style=" stroke:none;fill-rule:nonzero;fill:rgb(5.098039%,4.705882%,13.333333%);fill-opacity:1;" d="M 51.089844 60.222656 C 51.089844 60.167969 51.066406 60.179688 51.074219 60.363281 C 51.074219 60.347656 51.078125 60.335938 51.082031 60.320312 C 51.085938 60.285156 51.085938 60.253906 51.089844 60.222656 Z M 51.089844 60.222656 "/>
<path style=" stroke:none;fill-rule:nonzero;fill:rgb(5.098039%,4.705882%,13.333333%);fill-opacity:1;" d="M 50.222656 61.882812 C 50.175781 61.902344 50.136719 61.933594 50.105469 61.976562 L 50.140625 61.953125 C 50.164062 61.929688 50.199219 61.902344 50.222656 61.882812 Z M 50.222656 61.882812 "/>
<path style=" stroke:none;fill-rule:nonzero;fill:rgb(5.098039%,4.705882%,13.333333%);fill-opacity:1;" d="M 36.730469 62.28125 C 36.695312 62.25 36.652344 62.230469 36.609375 62.222656 C 36.644531 62.238281 36.683594 62.257812 36.707031 62.269531 Z M 36.730469 62.28125 "/>
<path style=" stroke:none;fill-rule:nonzero;fill:rgb(5.098039%,4.705882%,13.333333%);fill-opacity:1;" d="M 35.398438 60.996094 C 35.394531 60.941406 35.375 60.890625 35.351562 60.84375 C 35.367188 60.890625 35.382812 60.941406 35.398438 60.996094 Z M 35.398438 60.996094 "/>
<path style=" stroke:none;fill-rule:nonzero;fill:rgb(100%,100%,100%);fill-opacity:1;" d="M 44.363281 38.050781 C 42.53125 38.839844 40.453125 39.730469 37.757812 39.730469 C 36.628906 39.730469 35.507812 39.574219 34.421875 39.269531 L 36.285156 58.476562 C 36.351562 59.28125 36.714844 60.027344 37.304688 60.574219 C 37.894531 61.121094 38.667969 61.421875 39.472656 61.421875 C 39.472656 61.421875 42.117188 61.558594 43 61.558594 C 43.949219 61.558594 46.792969 61.421875 46.792969 61.421875 C 47.597656 61.421875 48.371094 61.121094 48.960938 60.574219 C 49.550781 60.027344 49.914062 59.28125 49.980469 58.476562 L 51.976562 37.253906 C 51.085938 36.945312 50.183594 36.742188 49.171875 36.742188 C 47.414062 36.742188 46 37.351562 44.363281 38.050781 Z M 44.363281 38.050781 "/>
<path style=" stroke:none;fill-rule:nonzero;fill:rgb(5.098039%,4.705882%,13.333333%);fill-opacity:1;" d="M 28.652344 29.855469 L 28.683594 29.886719 L 28.703125 29.898438 C 28.6875 29.882812 28.671875 29.871094 28.652344 29.855469 Z M 28.652344 29.855469 "/>
<path style=" stroke:none;fill-rule:nonzero;fill:rgb(5.098039%,4.705882%,13.333333%);fill-opacity:1;" d="M 60.601562 28.085938 L 60.324219 26.664062 C 60.070312 25.390625 59.5 24.183594 58.195312 23.722656 C 57.777344 23.574219 57.300781 23.511719 56.980469 23.207031 C 56.660156 22.902344 56.566406 22.429688 56.492188 21.988281 C 56.355469 21.183594 56.226562 20.375 56.085938 19.570312 C 55.964844 18.878906 55.867188 18.101562 55.550781 17.464844 C 55.140625 16.613281 54.285156 16.113281 53.433594 15.785156 C 53 15.621094 52.554688 15.480469 52.105469 15.371094 C 49.980469 14.808594 47.75 14.601562 45.5625 14.484375 C 42.941406 14.339844 40.3125 14.382812 37.699219 14.613281 C 35.75 14.792969 33.699219 15.007812 31.851562 15.683594 C 31.175781 15.929688 30.476562 16.226562 29.964844 16.75 C 29.332031 17.394531 29.125 18.390625 29.585938 19.195312 C 29.914062 19.765625 30.46875 20.167969 31.058594 20.433594 C 31.824219 20.777344 32.625 21.039062 33.445312 21.214844 C 35.730469 21.722656 38.097656 21.921875 40.433594 22.003906 C 43.023438 22.109375 45.613281 22.023438 48.191406 21.75 C 48.828125 21.679688 49.464844 21.597656 50.097656 21.496094 C 50.847656 21.382812 51.328125 20.402344 51.105469 19.71875 C 50.84375 18.902344 50.132812 18.585938 49.332031 18.707031 C 49.214844 18.726562 49.097656 18.742188 48.980469 18.761719 L 48.894531 18.773438 C 48.621094 18.808594 48.351562 18.839844 48.078125 18.871094 C 47.519531 18.929688 46.957031 18.980469 46.394531 19.019531 C 45.132812 19.105469 43.867188 19.148438 42.601562 19.148438 C 41.359375 19.148438 40.117188 19.113281 38.878906 19.03125 C 38.3125 18.996094 37.746094 18.949219 37.183594 18.890625 C 36.929688 18.863281 36.671875 18.835938 36.417969 18.804688 L 36.175781 18.773438 L 36.121094 18.765625 L 35.871094 18.730469 C 35.355469 18.652344 34.839844 18.5625 34.332031 18.453125 C 34.28125 18.441406 34.234375 18.414062 34.199219 18.371094 C 34.167969 18.332031 34.148438 18.28125 34.148438 18.226562 C 34.148438 18.171875 34.167969 18.121094 34.199219 18.082031 C 34.234375 18.039062 34.28125 18.011719 34.332031 18 L 34.339844 18 C 34.78125 17.90625 35.226562 17.824219 35.671875 17.753906 C 35.820312 17.730469 35.972656 17.707031 36.121094 17.6875 L 36.125 17.6875 C 36.402344 17.667969 36.683594 17.617188 36.960938 17.582031 C 39.382812 17.332031 41.816406 17.246094 44.246094 17.328125 C 45.425781 17.359375 46.605469 17.429688 47.78125 17.550781 C 48.03125 17.578125 48.285156 17.605469 48.535156 17.636719 C 48.628906 17.648438 48.726562 17.660156 48.824219 17.671875 L 49.019531 17.699219 C 49.585938 17.785156 50.152344 17.886719 50.714844 18.007812 C 51.546875 18.191406 52.617188 18.25 52.988281 19.167969 C 53.109375 19.457031 53.160156 19.78125 53.226562 20.085938 L 53.308594 20.476562 C 53.3125 20.480469 53.3125 20.488281 53.3125 20.496094 C 53.511719 21.414062 53.707031 22.332031 53.902344 23.25 C 53.917969 23.320312 53.917969 23.390625 53.90625 23.457031 C 53.890625 23.523438 53.863281 23.589844 53.824219 23.644531 C 53.785156 23.703125 53.734375 23.75 53.675781 23.789062 C 53.617188 23.824219 53.550781 23.847656 53.480469 23.855469 L 53.476562 23.855469 L 53.355469 23.875 L 53.238281 23.890625 C 52.859375 23.9375 52.484375 23.984375 52.105469 24.027344 C 51.363281 24.113281 50.621094 24.183594 49.875 24.246094 C 48.394531 24.371094 46.910156 24.453125 45.425781 24.492188 C 44.667969 24.511719 43.910156 24.519531 43.152344 24.519531 C 40.140625 24.515625 37.128906 24.339844 34.136719 23.992188 C 33.8125 23.953125 33.488281 23.914062 33.164062 23.871094 C 33.417969 23.902344 32.984375 23.847656 32.894531 23.832031 C 32.6875 23.804688 32.484375 23.773438 32.277344 23.742188 C 31.585938 23.640625 30.898438 23.511719 30.207031 23.398438 C 29.375 23.261719 28.578125 23.328125 27.824219 23.742188 C 27.203125 24.082031 26.703125 24.605469 26.386719 25.238281 C 26.058594 25.914062 25.964844 26.648438 25.816406 27.375 C 25.671875 28.097656 25.445312 28.878906 25.53125 29.625 C 25.714844 31.230469 26.835938 32.535156 28.445312 32.828125 C 29.960938 33.105469 31.484375 33.328125 33.011719 33.515625 C 39.011719 34.253906 45.074219 34.34375 51.09375 33.78125 C 51.582031 33.734375 52.070312 33.683594 52.558594 33.628906 C 52.714844 33.613281 52.867188 33.632812 53.011719 33.683594 C 53.15625 33.734375 53.289062 33.816406 53.398438 33.925781 C 53.507812 34.03125 53.589844 34.164062 53.644531 34.308594 C 53.695312 34.453125 53.714844 34.609375 53.699219 34.761719 L 53.542969 36.25 C 53.238281 39.253906 52.929688 42.257812 52.625 45.257812 C 52.304688 48.414062 51.980469 51.566406 51.65625 54.71875 C 51.566406 55.609375 51.472656 56.496094 51.382812 57.382812 C 51.292969 58.257812 51.28125 59.160156 51.117188 60.023438 C 50.855469 61.382812 49.9375 62.214844 48.601562 62.519531 C 47.375 62.800781 46.125 62.945312 44.867188 62.957031 C 43.476562 62.964844 42.082031 62.902344 40.691406 62.910156 C 39.203125 62.917969 37.382812 62.78125 36.234375 61.671875 C 35.226562 60.695312 35.085938 59.167969 34.949219 57.847656 C 34.765625 56.101562 34.585938 54.351562 34.40625 52.605469 L 33.398438 42.886719 L 32.742188 36.597656 C 32.734375 36.496094 32.722656 36.390625 32.710938 36.289062 C 32.632812 35.539062 32.105469 34.804688 31.269531 34.839844 C 30.554688 34.871094 29.746094 35.480469 29.828125 36.289062 L 30.3125 40.949219 L 31.3125 50.59375 C 31.597656 53.332031 31.882812 56.070312 32.167969 58.8125 C 32.222656 59.335938 32.273438 59.863281 32.332031 60.386719 C 32.644531 63.253906 34.828125 64.800781 37.53125 65.234375 C 39.109375 65.492188 40.726562 65.542969 42.328125 65.570312 C 44.382812 65.601562 46.457031 65.683594 48.476562 65.308594 C 51.472656 64.757812 53.71875 62.75 54.039062 59.640625 C 54.128906 58.742188 54.222656 57.84375 54.3125 56.945312 C 54.617188 53.972656 54.921875 51 55.222656 48.027344 L 56.214844 38.316406 L 56.671875 33.867188 C 56.695312 33.644531 56.789062 33.4375 56.9375 33.273438 C 57.085938 33.109375 57.285156 33 57.5 32.957031 C 58.355469 32.789062 59.175781 32.503906 59.785156 31.851562 C 60.753906 30.808594 60.945312 29.453125 60.601562 28.085938 Z M 28.402344 29.042969 C 28.414062 29.039062 28.390625 29.152344 28.382812 29.203125 C 28.378906 29.125 28.382812 29.054688 28.402344 29.042969 Z M 28.484375 29.691406 C 28.492188 29.683594 28.511719 29.710938 28.535156 29.746094 C 28.503906 29.714844 28.480469 29.691406 28.484375 29.691406 Z M 28.566406 29.796875 C 28.597656 29.847656 28.613281 29.878906 28.566406 29.796875 Z M 28.730469 29.929688 L 28.734375 29.929688 C 28.734375 29.9375 28.742188 29.941406 28.746094 29.945312 C 28.742188 29.941406 28.734375 29.9375 28.730469 29.929688 Z M 57.460938 29.730469 C 57.152344 30.023438 56.691406 30.160156 56.234375 30.230469 C 51.097656 30.996094 45.886719 31.382812 40.695312 31.210938 C 36.980469 31.082031 33.304688 30.667969 29.628906 30.148438 C 29.269531 30.097656 28.878906 30.03125 28.628906 29.765625 C 28.164062 29.261719 28.390625 28.25 28.511719 27.640625 C 28.625 27.085938 28.835938 26.34375 29.496094 26.261719 C 30.527344 26.140625 31.722656 26.578125 32.742188 26.734375 C 33.96875 26.921875 35.199219 27.070312 36.433594 27.183594 C 41.707031 27.667969 47.070312 27.589844 52.320312 26.886719 C 53.277344 26.757812 54.230469 26.605469 55.179688 26.4375 C 56.027344 26.285156 56.964844 26 57.476562 26.878906 C 57.828125 27.476562 57.875 28.277344 57.820312 28.957031 C 57.800781 29.25 57.675781 29.527344 57.460938 29.730469 Z M 57.460938 29.730469 "/>
<path style=" stroke:none;fill-rule:evenodd;fill:rgb(5.098039%,4.705882%,13.72549%);fill-opacity:1;" d="M 88.605469 44.046875 C 88.304688 44.621094 87.894531 45.121094 87.371094 45.546875 C 86.84375 45.96875 86.234375 46.316406 85.53125 46.582031 C 84.832031 46.847656 84.128906 47.027344 83.421875 47.117188 C 82.714844 47.210938 82.027344 47.203125 81.359375 47.09375 C 80.695312 46.984375 80.128906 46.765625 79.660156 46.433594 L 80.1875 40.960938 C 80.667969 40.796875 81.277344 40.625 82.011719 40.449219 C 82.742188 40.273438 83.496094 40.148438 84.269531 40.074219 C 85.046875 40 85.777344 40.007812 86.46875 40.101562 C 87.160156 40.191406 87.707031 40.414062 88.105469 40.761719 C 88.324219 40.960938 88.507812 41.179688 88.65625 41.410156 C 88.804688 41.644531 88.898438 41.886719 88.929688 42.136719 C 89.015625 42.835938 88.90625 43.472656 88.605469 44.046875 Z M 80.984375 32.394531 C 81.335938 32.179688 81.757812 31.988281 82.246094 31.820312 C 82.738281 31.652344 83.242188 31.535156 83.757812 31.46875 C 84.273438 31.402344 84.777344 31.394531 85.269531 31.445312 C 85.761719 31.496094 86.195312 31.632812 86.570312 31.855469 C 86.945312 32.082031 87.222656 32.40625 87.40625 32.832031 C 87.589844 33.257812 87.640625 33.792969 87.554688 34.441406 C 87.492188 34.957031 87.285156 35.394531 86.945312 35.753906 C 86.601562 36.113281 86.1875 36.410156 85.695312 36.652344 C 85.203125 36.894531 84.683594 37.085938 84.132812 37.226562 C 83.585938 37.371094 83.054688 37.472656 82.546875 37.539062 C 82.039062 37.605469 81.597656 37.648438 81.222656 37.664062 C 80.847656 37.679688 80.601562 37.691406 80.484375 37.691406 Z M 91.304688 40.511719 C 91.039062 39.929688 90.679688 39.417969 90.230469 38.976562 C 89.78125 38.535156 89.246094 38.214844 88.632812 38.015625 C 88.898438 37.796875 89.160156 37.457031 89.417969 36.992188 C 89.675781 36.523438 89.898438 36.015625 90.082031 35.464844 C 90.261719 34.917969 90.386719 34.363281 90.453125 33.804688 C 90.519531 33.246094 90.496094 32.769531 90.378906 32.371094 C 90.097656 31.371094 89.652344 30.585938 89.042969 30.019531 C 88.433594 29.457031 87.726562 29.0625 86.917969 28.847656 C 86.113281 28.632812 85.222656 28.585938 84.246094 28.710938 C 83.273438 28.835938 82.277344 29.082031 81.261719 29.445312 C 81.261719 29.363281 81.269531 29.277344 81.285156 29.183594 C 81.300781 29.09375 81.308594 28.996094 81.308594 28.898438 C 81.308594 28.648438 81.1875 28.429688 80.9375 28.246094 C 80.6875 28.066406 80.398438 27.957031 80.074219 27.921875 C 79.75 27.890625 79.433594 27.960938 79.125 28.136719 C 78.816406 28.308594 78.605469 28.632812 78.488281 29.097656 C 78.355469 30.597656 78.222656 32.152344 78.089844 33.769531 C 77.953125 35.382812 77.8125 37.015625 77.664062 38.664062 C 77.511719 40.3125 77.363281 41.949219 77.214844 43.570312 C 77.0625 45.195312 76.914062 46.757812 76.765625 48.253906 C 76.8125 48.707031 76.9375 49.054688 77.136719 49.304688 C 77.339844 49.554688 77.570312 49.703125 77.835938 49.753906 C 78.105469 49.804688 78.382812 49.757812 78.675781 49.617188 C 78.964844 49.476562 79.21875 49.230469 79.4375 48.878906 C 80.101562 49.246094 80.851562 49.484375 81.6875 49.59375 C 82.519531 49.699219 83.363281 49.699219 84.222656 49.59375 C 85.078125 49.484375 85.925781 49.28125 86.757812 48.980469 C 87.589844 48.679688 88.347656 48.304688 89.03125 47.855469 C 89.714844 47.40625 90.289062 46.894531 90.753906 46.320312 C 91.222656 45.746094 91.527344 45.125 91.679688 44.460938 C 91.828125 43.777344 91.871094 43.09375 91.804688 42.410156 C 91.738281 41.726562 91.570312 41.09375 91.304688 40.511719 Z M 91.304688 40.511719 "/>
<path style=" stroke:none;fill-rule:evenodd;fill:rgb(5.098039%,4.705882%,13.72549%);fill-opacity:1;" d="M 115.679688 53.699219 C 115.585938 54.25 115.457031 54.828125 115.292969 55.4375 C 115.125 56.042969 114.929688 56.597656 114.703125 57.097656 C 114.480469 57.597656 114.230469 58 113.957031 58.308594 C 113.679688 58.617188 113.382812 58.746094 113.066406 58.695312 C 112.816406 58.664062 112.660156 58.503906 112.59375 58.222656 C 112.527344 57.9375 112.527344 57.589844 112.59375 57.171875 C 112.660156 56.757812 112.789062 56.285156 112.980469 55.761719 C 113.171875 55.238281 113.40625 54.714844 113.679688 54.199219 C 113.957031 53.683594 114.265625 53.1875 114.617188 52.714844 C 114.96875 52.238281 115.332031 51.84375 115.714844 51.527344 C 115.800781 51.628906 115.835938 51.878906 115.828125 52.277344 C 115.820312 52.675781 115.769531 53.152344 115.679688 53.699219 Z M 124.148438 42.859375 C 123.921875 42.609375 123.648438 42.46875 123.324219 42.433594 C 123 42.402344 122.667969 42.585938 122.335938 42.984375 C 122.121094 43.382812 121.84375 43.765625 121.511719 44.132812 C 121.179688 44.5 120.832031 44.832031 120.476562 45.132812 C 120.117188 45.433594 119.777344 45.691406 119.453125 45.90625 C 119.125 46.125 118.871094 46.28125 118.691406 46.382812 C 118.621094 45.847656 118.585938 45.273438 118.578125 44.660156 C 118.566406 44.042969 118.582031 43.417969 118.613281 42.785156 C 118.664062 41.886719 118.769531 40.980469 118.925781 40.0625 C 119.085938 39.148438 119.3125 38.246094 119.613281 37.363281 C 119.613281 36.898438 119.503906 36.519531 119.289062 36.226562 C 119.070312 35.9375 118.808594 35.753906 118.503906 35.679688 C 118.195312 35.605469 117.878906 35.644531 117.550781 35.804688 C 117.226562 35.960938 116.949219 36.25 116.714844 36.664062 C 116.515625 37.214844 116.285156 37.832031 116.027344 38.511719 C 115.769531 39.195312 115.480469 39.890625 115.15625 40.597656 C 114.828125 41.308594 114.46875 41.996094 114.066406 42.660156 C 113.667969 43.328125 113.230469 43.917969 112.753906 44.433594 C 112.28125 44.949219 111.765625 45.355469 111.207031 45.644531 C 110.648438 45.9375 110.046875 46.066406 109.394531 46.03125 C 109.09375 45.949219 108.878906 45.722656 108.746094 45.359375 C 108.613281 44.992188 108.535156 44.535156 108.507812 43.984375 C 108.484375 43.433594 108.507812 42.832031 108.582031 42.171875 C 108.660156 41.515625 108.757812 40.863281 108.882812 40.210938 C 109.007812 39.5625 109.144531 38.945312 109.296875 38.363281 C 109.445312 37.78125 109.585938 37.289062 109.71875 36.890625 C 109.921875 36.40625 109.921875 36.003906 109.71875 35.679688 C 109.519531 35.355469 109.246094 35.136719 108.894531 35.027344 C 108.546875 34.921875 108.179688 34.925781 107.796875 35.042969 C 107.414062 35.160156 107.136719 35.417969 106.972656 35.816406 C 106.6875 36.5 106.429688 37.265625 106.195312 38.113281 C 105.964844 38.964844 105.777344 39.84375 105.636719 40.75 C 105.492188 41.65625 105.414062 42.554688 105.398438 43.445312 C 105.398438 43.503906 105.398438 43.558594 105.398438 43.617188 C 105.035156 44.585938 104.691406 45.316406 104.363281 45.808594 C 103.9375 46.441406 103.457031 46.714844 102.925781 46.632812 C 102.691406 46.53125 102.539062 46.296875 102.460938 45.933594 C 102.386719 45.566406 102.363281 45.117188 102.386719 44.582031 C 102.414062 44.050781 102.476562 43.445312 102.574219 42.773438 C 102.675781 42.097656 102.800781 41.398438 102.949219 40.675781 C 103.097656 39.949219 103.257812 39.222656 103.425781 38.488281 C 103.589844 37.757812 103.742188 37.066406 103.875 36.414062 C 103.859375 35.832031 103.6875 35.386719 103.363281 35.078125 C 103.039062 34.769531 102.582031 34.652344 102 34.71875 C 101.601562 34.882812 101.304688 35.101562 101.113281 35.367188 C 100.921875 35.632812 100.765625 35.972656 100.652344 36.390625 C 100.582031 36.605469 100.484375 37.039062 100.351562 37.691406 C 100.21875 38.339844 100.046875 39.085938 99.839844 39.925781 C 99.628906 40.765625 99.386719 41.644531 99.101562 42.558594 C 98.820312 43.476562 98.503906 44.304688 98.152344 45.046875 C 97.804688 45.785156 97.417969 46.382812 97.003906 46.832031 C 96.585938 47.28125 96.136719 47.464844 95.65625 47.382812 C 95.386719 47.332031 95.21875 47.054688 95.140625 46.558594 C 95.066406 46.058594 95.054688 45.441406 95.105469 44.707031 C 95.15625 43.976562 95.253906 43.171875 95.402344 42.296875 C 95.554688 41.421875 95.707031 40.59375 95.867188 39.8125 C 96.023438 39.03125 96.171875 38.339844 96.304688 37.738281 C 96.4375 37.140625 96.527344 36.738281 96.578125 36.539062 C 96.578125 36.058594 96.46875 35.671875 96.253906 35.378906 C 96.039062 35.089844 95.773438 34.90625 95.464844 34.828125 C 95.160156 34.753906 94.84375 34.796875 94.519531 34.953125 C 94.191406 35.113281 93.914062 35.398438 93.679688 35.816406 C 93.597656 36.265625 93.488281 36.785156 93.355469 37.378906 C 93.222656 37.96875 93.09375 38.574219 92.96875 39.199219 C 92.84375 39.824219 92.726562 40.4375 92.617188 41.035156 C 92.511719 41.636719 92.429688 42.160156 92.382812 42.609375 C 92.347656 42.960938 92.308594 43.390625 92.269531 43.898438 C 92.226562 44.40625 92.207031 44.941406 92.207031 45.507812 C 92.207031 46.074219 92.246094 46.636719 92.332031 47.195312 C 92.414062 47.75 92.566406 48.265625 92.78125 48.730469 C 92.996094 49.195312 93.300781 49.578125 93.695312 49.878906 C 94.085938 50.179688 94.578125 50.34375 95.179688 50.378906 C 95.796875 50.410156 96.332031 50.367188 96.792969 50.242188 C 97.25 50.117188 97.664062 49.921875 98.039062 49.652344 C 98.414062 49.386719 98.757812 49.070312 99.066406 48.703125 C 99.371094 48.339844 99.675781 47.9375 99.976562 47.507812 C 100.261719 48.140625 100.625 48.628906 101.074219 48.980469 C 101.527344 49.328125 102 49.539062 102.5 49.605469 C 103 49.671875 103.507812 49.601562 104.023438 49.390625 C 104.539062 49.183594 105.007812 48.828125 105.421875 48.332031 C 105.699219 48.023438 105.957031 47.675781 106.199219 47.289062 C 106.300781 47.46875 106.410156 47.644531 106.535156 47.804688 C 106.941406 48.339844 107.496094 48.703125 108.195312 48.90625 C 108.945312 49.105469 109.679688 49.136719 110.394531 49.003906 C 111.109375 48.871094 111.792969 48.628906 112.441406 48.28125 C 113.09375 47.929688 113.695312 47.511719 114.253906 47.019531 C 114.8125 46.527344 115.300781 46.015625 115.714844 45.484375 C 115.699219 45.867188 115.691406 46.226562 115.691406 46.570312 C 115.691406 46.910156 115.683594 47.28125 115.667969 47.679688 C 114.832031 48.265625 114.046875 48.964844 113.304688 49.777344 C 112.5625 50.59375 111.914062 51.464844 111.355469 52.390625 C 110.796875 53.3125 110.363281 54.25 110.046875 55.199219 C 109.730469 56.148438 109.574219 57.035156 109.582031 57.859375 C 109.589844 58.683594 109.785156 59.402344 110.171875 60.019531 C 110.550781 60.636719 111.175781 61.078125 112.042969 61.34375 C 112.945312 61.628906 113.734375 61.636719 114.417969 61.367188 C 115.101562 61.101562 115.695312 60.660156 116.203125 60.046875 C 116.710938 59.429688 117.128906 58.683594 117.453125 57.808594 C 117.777344 56.933594 118.035156 56.023438 118.226562 55.074219 C 118.417969 54.125 118.539062 53.191406 118.589844 52.277344 C 118.640625 51.359375 118.640625 50.542969 118.589844 49.828125 C 120.023438 49.230469 121.195312 48.472656 122.113281 47.554688 C 123.027344 46.640625 123.785156 45.675781 124.386719 44.660156 C 124.570312 44.410156 124.632812 44.109375 124.574219 43.757812 C 124.515625 43.410156 124.375 43.109375 124.148438 42.859375 Z M 124.148438 42.859375 "/>
<path style=" stroke:none;fill-rule:evenodd;fill:rgb(5.098039%,4.705882%,13.72549%);fill-opacity:1;" d="M 155.664062 41.261719 C 155.714844 40.878906 155.789062 40.476562 155.890625 40.050781 C 155.988281 39.625 156.113281 39.214844 156.265625 38.8125 C 156.414062 38.414062 156.589844 38.070312 156.789062 37.777344 C 156.988281 37.484375 157.203125 37.277344 157.425781 37.152344 C 157.652344 37.027344 157.878906 37.039062 158.113281 37.191406 C 158.363281 37.339844 158.515625 37.65625 158.578125 38.140625 C 158.632812 38.621094 158.578125 39.140625 158.402344 39.6875 C 158.226562 40.238281 157.914062 40.753906 157.464844 41.238281 C 157.015625 41.71875 156.40625 42.035156 155.640625 42.1875 C 155.605469 41.953125 155.617188 41.644531 155.664062 41.261719 Z M 164.320312 42.285156 C 164.046875 42.203125 163.785156 42.195312 163.535156 42.261719 C 163.285156 42.328125 163.128906 42.503906 163.0625 42.785156 C 162.925781 43.320312 162.714844 43.863281 162.421875 44.421875 C 162.132812 44.980469 161.773438 45.507812 161.347656 46.007812 C 160.925781 46.507812 160.445312 46.949219 159.914062 47.332031 C 159.378906 47.714844 158.820312 47.988281 158.238281 48.15625 C 157.65625 48.339844 157.171875 48.359375 156.789062 48.21875 C 156.40625 48.078125 156.101562 47.835938 155.878906 47.496094 C 155.652344 47.152344 155.492188 46.742188 155.390625 46.257812 C 155.289062 45.773438 155.230469 45.277344 155.214844 44.757812 C 156.164062 44.824219 157.011719 44.65625 157.75 44.246094 C 158.492188 43.839844 159.121094 43.296875 159.636719 42.625 C 160.152344 41.949219 160.546875 41.191406 160.8125 40.351562 C 161.078125 39.507812 161.226562 38.671875 161.261719 37.839844 C 161.277344 37.058594 161.160156 36.394531 160.910156 35.855469 C 160.664062 35.3125 160.324219 34.890625 159.898438 34.59375 C 159.476562 34.292969 158.988281 34.117188 158.4375 34.066406 C 157.890625 34.019531 157.332031 34.09375 156.765625 34.292969 C 156.082031 34.527344 155.503906 34.90625 155.027344 35.429688 C 154.554688 35.953125 154.15625 36.5625 153.839844 37.253906 C 153.523438 37.945312 153.273438 38.6875 153.09375 39.488281 C 152.910156 40.289062 152.773438 41.074219 152.691406 41.847656 C 152.617188 42.542969 152.578125 43.207031 152.5625 43.851562 C 152.527344 43.929688 152.492188 44.007812 152.453125 44.097656 C 152.195312 44.6875 151.894531 45.265625 151.554688 45.832031 C 151.214844 46.398438 150.835938 46.875 150.417969 47.257812 C 150.003906 47.640625 149.570312 47.773438 149.121094 47.65625 C 148.851562 47.589844 148.707031 47.28125 148.683594 46.734375 C 148.65625 46.183594 148.6875 45.5 148.769531 44.683594 C 148.851562 43.867188 148.949219 42.984375 149.058594 42.035156 C 149.164062 41.085938 149.21875 40.179688 149.21875 39.3125 C 149.21875 38.5625 149.078125 37.84375 148.792969 37.152344 C 148.511719 36.460938 148.125 35.886719 147.632812 35.429688 C 147.140625 34.972656 146.570312 34.667969 145.921875 34.519531 C 145.273438 34.367188 144.574219 34.46875 143.824219 34.816406 C 143.074219 35.167969 142.476562 35.660156 142.035156 36.292969 C 141.59375 36.925781 141.191406 37.589844 140.824219 38.289062 C 140.691406 37.757812 140.496094 37.261719 140.238281 36.804688 C 139.980469 36.34375 139.664062 35.945312 139.289062 35.605469 C 138.914062 35.261719 138.492188 34.996094 138.027344 34.804688 C 137.5625 34.613281 137.070312 34.519531 136.550781 34.519531 C 136.054688 34.519531 135.589844 34.613281 135.167969 34.804688 C 134.742188 34.996094 134.355469 35.242188 134.003906 35.542969 C 133.65625 35.84375 133.339844 36.179688 133.054688 36.554688 C 132.773438 36.929688 132.523438 37.300781 132.304688 37.664062 C 132.273438 37.230469 132.234375 36.851562 132.195312 36.527344 C 132.152344 36.203125 132.074219 35.929688 131.96875 35.703125 C 131.859375 35.480469 131.707031 35.308594 131.507812 35.191406 C 131.304688 35.074219 131.023438 35.015625 130.65625 35.015625 C 130.472656 35.015625 130.289062 35.054688 130.105469 35.128906 C 129.921875 35.203125 129.761719 35.308594 129.621094 35.441406 C 129.476562 35.574219 129.371094 35.738281 129.296875 35.929688 C 129.21875 36.121094 129.199219 36.339844 129.234375 36.589844 C 129.25 36.773438 129.296875 36.996094 129.371094 37.253906 C 129.445312 37.511719 129.515625 37.847656 129.582031 38.265625 C 129.648438 38.679688 129.703125 39.183594 129.746094 39.777344 C 129.785156 40.367188 129.796875 41.089844 129.78125 41.949219 C 129.765625 42.808594 129.703125 43.808594 129.59375 44.957031 C 129.484375 46.109375 129.316406 47.441406 129.082031 48.957031 C 129.050781 49.304688 129.183594 49.589844 129.484375 49.804688 C 129.78125 50.019531 130.125 50.144531 130.507812 50.179688 C 130.890625 50.210938 131.253906 50.144531 131.59375 49.980469 C 131.933594 49.8125 132.132812 49.519531 132.179688 49.105469 C 132.230469 48.324219 132.328125 47.488281 132.46875 46.605469 C 132.609375 45.726562 132.785156 44.851562 132.992188 43.984375 C 133.199219 43.117188 133.4375 42.292969 133.703125 41.511719 C 133.972656 40.730469 134.265625 40.039062 134.589844 39.4375 C 134.917969 38.839844 135.253906 38.359375 135.601562 38.003906 C 135.953125 37.644531 136.320312 37.464844 136.703125 37.464844 C 137.167969 37.464844 137.53125 37.675781 137.789062 38.101562 C 138.046875 38.527344 138.230469 39.074219 138.339844 39.738281 C 138.445312 40.40625 138.496094 41.132812 138.488281 41.925781 C 138.480469 42.714844 138.445312 43.476562 138.390625 44.210938 C 138.332031 44.941406 138.265625 45.597656 138.1875 46.171875 C 138.113281 46.746094 138.058594 47.140625 138.027344 47.355469 C 138.027344 47.738281 138.171875 48.042969 138.464844 48.269531 C 138.753906 48.492188 139.078125 48.625 139.4375 48.667969 C 139.796875 48.710938 140.132812 48.644531 140.449219 48.46875 C 140.765625 48.292969 140.949219 48 141 47.582031 C 141.167969 46.382812 141.394531 45.179688 141.6875 43.972656 C 141.976562 42.765625 142.3125 41.683594 142.6875 40.726562 C 143.0625 39.765625 143.476562 38.984375 143.933594 38.378906 C 144.394531 37.769531 144.878906 37.464844 145.398438 37.464844 C 145.664062 37.464844 145.867188 37.648438 146.007812 38.015625 C 146.152344 38.382812 146.222656 38.878906 146.222656 39.511719 C 146.222656 39.980469 146.183594 40.457031 146.109375 40.949219 C 146.035156 41.441406 145.945312 41.949219 145.847656 42.472656 C 145.746094 43 145.660156 43.535156 145.585938 44.085938 C 145.507812 44.632812 145.472656 45.207031 145.472656 45.808594 C 145.472656 46.222656 145.515625 46.707031 145.597656 47.257812 C 145.679688 47.804688 145.839844 48.328125 146.070312 48.816406 C 146.304688 49.308594 146.625 49.726562 147.035156 50.066406 C 147.441406 50.40625 147.960938 50.578125 148.59375 50.578125 C 149.542969 50.578125 150.386719 50.375 151.117188 49.96875 C 151.851562 49.558594 152.480469 49.027344 153.003906 48.367188 C 153.03125 48.335938 153.058594 48.296875 153.082031 48.261719 C 153.125 48.359375 153.160156 48.464844 153.203125 48.554688 C 153.5625 49.289062 154.050781 49.855469 154.664062 50.253906 C 155.28125 50.652344 156.007812 50.875 156.839844 50.917969 C 157.671875 50.957031 158.578125 50.804688 159.5625 50.453125 C 160.296875 50.1875 160.933594 49.855469 161.472656 49.453125 C 162.015625 49.054688 162.503906 48.566406 162.933594 47.992188 C 163.367188 47.417969 163.765625 46.757812 164.121094 46.007812 C 164.480469 45.257812 164.84375 44.402344 165.207031 43.433594 C 165.277344 43.167969 165.214844 42.933594 165.023438 42.722656 C 164.828125 42.515625 164.597656 42.371094 164.320312 42.285156 Z M 164.320312 42.285156 "/>
<path style=" stroke:none;fill-rule:evenodd;fill:rgb(5.098039%,4.705882%,13.72549%);fill-opacity:1;" d="M 177.898438 39.5 C 177.816406 39.992188 177.703125 40.53125 177.5625 41.125 C 177.421875 41.714844 177.242188 42.328125 177.027344 42.960938 C 176.808594 43.59375 176.542969 44.164062 176.226562 44.671875 C 175.910156 45.179688 175.546875 45.582031 175.140625 45.882812 C 174.730469 46.183594 174.261719 46.304688 173.726562 46.257812 C 173.460938 46.222656 173.257812 46.039062 173.117188 45.707031 C 172.972656 45.375 172.898438 44.949219 172.890625 44.433594 C 172.882812 43.917969 172.929688 43.351562 173.027344 42.734375 C 173.128906 42.117188 173.28125 41.515625 173.492188 40.921875 C 173.699219 40.332031 173.953125 39.789062 174.253906 39.289062 C 174.550781 38.789062 174.898438 38.402344 175.289062 38.125 C 175.679688 37.851562 176.109375 37.722656 176.574219 37.738281 C 177.042969 37.753906 177.542969 37.988281 178.074219 38.4375 C 178.042969 38.65625 177.984375 39.007812 177.898438 39.5 Z M 186.78125 41.410156 C 186.523438 41.277344 186.257812 41.25 185.984375 41.324219 C 185.707031 41.398438 185.511719 41.652344 185.394531 42.085938 C 185.328125 42.550781 185.179688 43.101562 184.945312 43.734375 C 184.710938 44.367188 184.425781 44.964844 184.085938 45.53125 C 183.742188 46.097656 183.351562 46.570312 182.910156 46.945312 C 182.46875 47.316406 181.996094 47.488281 181.5 47.457031 C 181.082031 47.421875 180.789062 47.210938 180.625 46.820312 C 180.457031 46.425781 180.371094 45.9375 180.363281 45.34375 C 180.351562 44.753906 180.410156 44.089844 180.535156 43.347656 C 180.660156 42.605469 180.8125 41.867188 180.984375 41.136719 C 181.160156 40.402344 181.339844 39.699219 181.523438 39.023438 C 181.707031 38.351562 181.855469 37.78125 181.972656 37.316406 C 182.105469 36.898438 182.0625 36.542969 181.847656 36.253906 C 181.632812 35.960938 181.359375 35.753906 181.035156 35.628906 C 180.710938 35.503906 180.382812 35.46875 180.046875 35.527344 C 179.714844 35.585938 179.5 35.765625 179.398438 36.066406 C 178.417969 35.214844 177.472656 34.757812 176.5625 34.691406 C 175.65625 34.625 174.820312 34.824219 174.054688 35.292969 C 173.285156 35.757812 172.609375 36.429688 172.015625 37.316406 C 171.425781 38.199219 170.945312 39.160156 170.578125 40.199219 C 170.214844 41.238281 169.984375 42.300781 169.894531 43.382812 C 169.800781 44.464844 169.871094 45.453125 170.105469 46.34375 C 170.339844 47.234375 170.75 47.964844 171.34375 48.53125 C 171.933594 49.097656 172.738281 49.378906 173.753906 49.378906 C 174.203125 49.378906 174.636719 49.289062 175.050781 49.105469 C 175.46875 48.921875 175.851562 48.703125 176.203125 48.453125 C 176.550781 48.203125 176.859375 47.941406 177.125 47.667969 C 177.390625 47.394531 177.601562 47.164062 177.75 46.980469 C 177.867188 47.582031 178.058594 48.089844 178.324219 48.503906 C 178.589844 48.921875 178.894531 49.261719 179.238281 49.527344 C 179.578125 49.792969 179.9375 49.992188 180.3125 50.117188 C 180.6875 50.242188 181.046875 50.304688 181.398438 50.304688 C 182.179688 50.304688 182.914062 50.035156 183.597656 49.503906 C 184.28125 48.972656 184.890625 48.316406 185.433594 47.542969 C 185.972656 46.769531 186.421875 45.953125 186.769531 45.09375 C 187.121094 44.238281 187.351562 43.476562 187.46875 42.808594 C 187.585938 42.558594 187.566406 42.296875 187.40625 42.023438 C 187.25 41.746094 187.039062 41.542969 186.78125 41.410156 Z M 186.78125 41.410156 "/>
<path style=" stroke:none;fill-rule:evenodd;fill:rgb(5.098039%,4.705882%,13.72549%);fill-opacity:1;" d="M 231.753906 55.199219 C 231.613281 55.765625 231.390625 56.246094 231.089844 56.636719 C 230.792969 57.027344 230.417969 57.230469 229.96875 57.25 C 229.683594 57.265625 229.46875 57.117188 229.316406 56.800781 C 229.167969 56.484375 229.0625 56.074219 229.003906 55.574219 C 228.945312 55.074219 228.921875 54.519531 228.929688 53.902344 C 228.9375 53.285156 228.964844 52.675781 229.003906 52.078125 C 229.046875 51.480469 229.097656 50.921875 229.15625 50.40625 C 229.214844 49.886719 229.257812 49.488281 229.292969 49.207031 C 229.859375 49.273438 230.328125 49.519531 230.703125 49.941406 C 231.078125 50.367188 231.367188 50.871094 231.566406 51.453125 C 231.765625 52.035156 231.882812 52.664062 231.914062 53.339844 C 231.949219 54.015625 231.894531 54.632812 231.753906 55.199219 Z M 222.710938 55.199219 C 222.566406 55.765625 222.347656 56.246094 222.046875 56.636719 C 221.746094 57.027344 221.371094 57.230469 220.921875 57.25 C 220.640625 57.265625 220.421875 57.117188 220.273438 56.800781 C 220.125 56.484375 220.019531 56.074219 219.960938 55.574219 C 219.902344 55.074219 219.878906 54.519531 219.886719 53.902344 C 219.894531 53.285156 219.917969 52.675781 219.960938 52.078125 C 220.003906 51.480469 220.050781 50.921875 220.109375 50.40625 C 220.167969 49.886719 220.214844 49.488281 220.25 49.207031 C 220.8125 49.273438 221.285156 49.519531 221.660156 49.941406 C 222.035156 50.367188 222.320312 50.871094 222.523438 51.453125 C 222.722656 52.035156 222.839844 52.664062 222.871094 53.339844 C 222.90625 54.015625 222.851562 54.632812 222.710938 55.199219 Z M 213.429688 41.011719 C 213.410156 41.414062 213.375 41.765625 213.316406 42.074219 C 213.257812 42.382812 213.179688 42.578125 213.078125 42.660156 C 212.894531 42.5625 212.667969 42.304688 212.402344 41.886719 C 212.136719 41.472656 211.929688 41 211.777344 40.476562 C 211.628906 39.949219 211.582031 39.433594 211.640625 38.925781 C 211.699219 38.417969 211.960938 38.023438 212.429688 37.742188 C 212.609375 37.640625 212.769531 37.679688 212.902344 37.851562 C 213.035156 38.027344 213.144531 38.28125 213.226562 38.613281 C 213.3125 38.949219 213.367188 39.332031 213.402344 39.765625 C 213.4375 40.195312 213.445312 40.613281 213.429688 41.011719 Z M 211.214844 45.996094 C 210.957031 46.269531 210.671875 46.507812 210.355469 46.707031 C 210.039062 46.90625 209.714844 47.058594 209.378906 47.15625 C 209.046875 47.257812 208.746094 47.28125 208.480469 47.230469 C 207.730469 47.082031 207.15625 46.757812 206.757812 46.257812 C 206.359375 45.757812 206.101562 45.171875 205.996094 44.496094 C 205.886719 43.824219 205.898438 43.101562 206.03125 42.335938 C 206.164062 41.570312 206.390625 40.859375 206.707031 40.203125 C 207.023438 39.542969 207.40625 38.976562 207.855469 38.503906 C 208.304688 38.027344 208.796875 37.734375 209.332031 37.617188 C 209.128906 38.464844 209.0625 39.34375 209.128906 40.25 C 209.195312 41.160156 209.414062 42.011719 209.78125 42.8125 C 210.011719 43.292969 210.292969 43.734375 210.617188 44.136719 C 210.941406 44.535156 211.335938 44.875 211.804688 45.160156 C 211.671875 45.441406 211.476562 45.722656 211.214844 45.996094 Z M 238.859375 41.261719 C 238.910156 40.878906 238.984375 40.476562 239.085938 40.050781 C 239.1875 39.625 239.3125 39.214844 239.460938 38.816406 C 239.609375 38.414062 239.785156 38.070312 239.984375 37.777344 C 240.1875 37.488281 240.398438 37.277344 240.621094 37.152344 C 240.847656 37.027344 241.078125 37.042969 241.308594 37.191406 C 241.558594 37.339844 241.714844 37.65625 241.773438 38.140625 C 241.828125 38.625 241.773438 39.140625 241.597656 39.6875 C 241.421875 40.238281 241.109375 40.753906 240.660156 41.238281 C 240.210938 41.722656 239.601562 42.035156 238.835938 42.1875 C 238.804688 41.953125 238.8125 41.644531 238.859375 41.261719 Z M 248.929688 41.261719 C 248.980469 40.878906 249.054688 40.476562 249.15625 40.050781 C 249.253906 39.625 249.378906 39.214844 249.53125 38.816406 C 249.679688 38.414062 249.855469 38.070312 250.054688 37.777344 C 250.253906 37.488281 250.464844 37.277344 250.691406 37.152344 C 250.917969 37.027344 251.144531 37.042969 251.378906 37.191406 C 251.628906 37.339844 251.78125 37.65625 251.839844 38.140625 C 251.898438 38.625 251.839844 39.140625 251.664062 39.6875 C 251.492188 40.238281 251.179688 40.753906 250.730469 41.238281 C 250.277344 41.722656 249.671875 42.035156 248.90625 42.1875 C 248.871094 41.953125 248.878906 41.644531 248.929688 41.261719 Z M 258.285156 42.722656 C 258.09375 42.515625 257.863281 42.371094 257.585938 42.285156 C 257.3125 42.203125 257.050781 42.195312 256.800781 42.261719 C 256.550781 42.328125 256.390625 42.503906 256.324219 42.785156 C 256.191406 43.320312 255.980469 43.863281 255.6875 44.421875 C 255.394531 44.980469 255.039062 45.507812 254.613281 46.007812 C 254.1875 46.507812 253.710938 46.949219 253.175781 47.332031 C 252.644531 47.714844 252.085938 47.992188 251.503906 48.15625 C 250.921875 48.339844 250.4375 48.359375 250.054688 48.21875 C 249.671875 48.078125 249.367188 47.835938 249.140625 47.496094 C 248.917969 47.152344 248.753906 46.742188 248.65625 46.257812 C 248.554688 45.777344 248.496094 45.277344 248.480469 44.757812 C 249.429688 44.828125 250.273438 44.65625 251.015625 44.246094 C 251.757812 43.839844 252.386719 43.296875 252.902344 42.625 C 253.417969 41.949219 253.808594 41.191406 254.078125 40.351562 C 254.34375 39.511719 254.492188 38.671875 254.527344 37.839844 C 254.542969 37.058594 254.425781 36.394531 254.175781 35.855469 C 253.925781 35.3125 253.589844 34.894531 253.164062 34.59375 C 252.738281 34.292969 252.253906 34.117188 251.703125 34.070312 C 251.152344 34.019531 250.59375 34.09375 250.027344 34.292969 C 249.347656 34.527344 248.765625 34.90625 248.292969 35.429688 C 247.820312 35.953125 247.421875 36.5625 247.105469 37.253906 C 246.789062 37.945312 246.539062 38.691406 246.355469 39.488281 C 246.171875 40.289062 246.039062 41.074219 245.957031 41.851562 C 245.875 42.601562 245.832031 43.320312 245.820312 44.007812 C 245.757812 44.144531 245.691406 44.285156 245.621094 44.421875 C 245.328125 44.980469 244.96875 45.507812 244.542969 46.007812 C 244.121094 46.507812 243.640625 46.949219 243.109375 47.332031 C 242.574219 47.714844 242.015625 47.992188 241.433594 48.15625 C 240.851562 48.339844 240.367188 48.359375 239.984375 48.21875 C 239.601562 48.078125 239.296875 47.835938 239.074219 47.496094 C 238.847656 47.152344 238.6875 46.742188 238.585938 46.257812 C 238.488281 45.777344 238.429688 45.277344 238.410156 44.757812 C 239.359375 44.828125 240.207031 44.65625 240.949219 44.246094 C 241.6875 43.839844 242.316406 43.296875 242.832031 42.625 C 243.351562 41.949219 243.742188 41.191406 244.007812 40.351562 C 244.273438 39.511719 244.425781 38.671875 244.457031 37.839844 C 244.472656 37.058594 244.359375 36.394531 244.109375 35.855469 C 243.859375 35.3125 243.519531 34.894531 243.09375 34.59375 C 242.671875 34.292969 242.183594 34.117188 241.632812 34.070312 C 241.085938 34.019531 240.527344 34.09375 239.960938 34.292969 C 239.277344 34.527344 238.699219 34.90625 238.222656 35.429688 C 237.75 35.953125 237.355469 36.5625 237.039062 37.253906 C 236.722656 37.945312 236.472656 38.691406 236.289062 39.488281 C 236.105469 40.289062 235.972656 41.074219 235.886719 41.851562 C 235.839844 42.285156 235.808594 42.710938 235.785156 43.125 C 235.625 43.261719 235.46875 43.398438 235.300781 43.535156 C 234.726562 44.003906 234.121094 44.421875 233.488281 44.796875 C 232.855469 45.171875 232.199219 45.480469 231.515625 45.722656 C 230.832031 45.960938 230.132812 46.109375 229.417969 46.160156 L 230.964844 29.574219 C 231.066406 29.222656 231.015625 28.914062 230.816406 28.648438 C 230.617188 28.382812 230.359375 28.199219 230.042969 28.097656 C 229.726562 28 229.386719 28.007812 229.03125 28.125 C 228.671875 28.242188 228.375 28.507812 228.144531 28.921875 C 228.027344 29.554688 227.90625 30.421875 227.78125 31.519531 C 227.65625 32.621094 227.53125 33.820312 227.40625 35.117188 C 227.28125 36.417969 227.15625 37.757812 227.03125 39.140625 C 226.90625 40.523438 226.796875 41.8125 226.707031 43.011719 C 226.703125 43.0625 226.699219 43.113281 226.695312 43.164062 C 226.550781 43.289062 226.40625 43.414062 226.257812 43.535156 C 225.683594 44.003906 225.078125 44.421875 224.445312 44.796875 C 223.8125 45.171875 223.15625 45.480469 222.472656 45.722656 C 221.789062 45.960938 221.089844 46.109375 220.375 46.160156 L 221.921875 29.574219 C 222.023438 29.222656 221.972656 28.914062 221.773438 28.648438 C 221.574219 28.382812 221.3125 28.199219 220.996094 28.097656 C 220.679688 28 220.34375 28.007812 219.984375 28.125 C 219.628906 28.242188 219.332031 28.507812 219.097656 28.921875 C 218.980469 29.554688 218.863281 30.421875 218.738281 31.519531 C 218.613281 32.621094 218.488281 33.820312 218.363281 35.117188 C 218.238281 36.417969 218.113281 37.757812 217.988281 39.140625 C 217.863281 40.523438 217.753906 41.8125 217.664062 43.011719 C 217.660156 43.035156 217.660156 43.058594 217.65625 43.082031 C 217.394531 43.203125 217.109375 43.308594 216.800781 43.398438 C 216.484375 43.488281 216.125 43.542969 215.726562 43.5625 C 215.792969 43.261719 215.847656 42.929688 215.886719 42.5625 C 215.929688 42.195312 215.964844 41.8125 215.988281 41.414062 C 216.015625 41.011719 216.023438 40.613281 216.015625 40.214844 C 216.003906 39.8125 215.984375 39.449219 215.953125 39.113281 C 215.867188 38.398438 215.714844 37.71875 215.488281 37.078125 C 215.265625 36.4375 214.960938 35.902344 214.578125 35.46875 C 214.195312 35.035156 213.714844 34.742188 213.140625 34.59375 C 212.566406 34.445312 211.894531 34.492188 211.128906 34.742188 C 209.996094 34.59375 208.976562 34.699219 208.070312 35.054688 C 207.160156 35.414062 206.375 35.933594 205.707031 36.617188 C 205.042969 37.300781 204.496094 38.101562 204.070312 39.027344 C 203.648438 39.949219 203.363281 40.902344 203.222656 41.875 C 203.164062 42.289062 203.132812 42.699219 203.125 43.109375 C 202.867188 43.636719 202.582031 44.097656 202.273438 44.484375 C 201.832031 45.035156 201.375 45.484375 200.898438 45.832031 C 200.421875 46.183594 199.953125 46.449219 199.488281 46.632812 C 199.019531 46.816406 198.605469 46.941406 198.238281 47.007812 C 197.804688 47.089844 197.386719 47.097656 196.988281 47.03125 C 196.589844 46.964844 196.222656 46.773438 195.890625 46.457031 C 195.621094 46.226562 195.417969 45.851562 195.277344 45.335938 C 195.136719 44.816406 195.054688 44.230469 195.027344 43.574219 C 195.003906 42.914062 195.027344 42.226562 195.101562 41.511719 C 195.175781 40.796875 195.304688 40.117188 195.488281 39.476562 C 195.671875 38.835938 195.90625 38.261719 196.1875 37.753906 C 196.472656 37.246094 196.804688 36.882812 197.1875 36.667969 C 197.40625 36.699219 197.539062 36.828125 197.589844 37.054688 C 197.636719 37.277344 197.652344 37.546875 197.625 37.851562 C 197.601562 38.160156 197.5625 38.476562 197.511719 38.800781 C 197.464844 39.128906 197.4375 39.398438 197.4375 39.613281 C 197.523438 40.0625 197.683594 40.414062 197.925781 40.664062 C 198.167969 40.914062 198.4375 41.058594 198.738281 41.101562 C 199.035156 41.140625 199.332031 41.070312 199.625 40.886719 C 199.914062 40.703125 200.152344 40.414062 200.335938 40.011719 C 200.351562 40.03125 200.378906 40.039062 200.410156 40.039062 L 200.761719 36.867188 C 200.859375 36.433594 200.792969 36.050781 200.5625 35.71875 C 200.328125 35.382812 200.019531 35.191406 199.636719 35.144531 C 199.152344 34.445312 198.5 34.074219 197.675781 34.03125 C 196.851562 33.988281 196.003906 34.261719 195.140625 34.84375 C 194.605469 35.226562 194.136719 35.753906 193.726562 36.429688 C 193.320312 37.105469 192.988281 37.851562 192.730469 38.675781 C 192.46875 39.5 192.289062 40.371094 192.179688 41.289062 C 192.070312 42.203125 192.050781 43.09375 192.117188 43.960938 C 192.183594 44.828125 192.335938 45.640625 192.578125 46.40625 C 192.820312 47.175781 193.15625 47.816406 193.589844 48.332031 C 193.957031 48.78125 194.375 49.109375 194.839844 49.320312 C 195.304688 49.527344 195.792969 49.65625 196.300781 49.707031 C 196.808594 49.753906 197.3125 49.734375 197.8125 49.644531 C 198.3125 49.550781 198.789062 49.421875 199.238281 49.253906 C 199.820312 49.039062 200.421875 48.765625 201.035156 48.429688 C 201.652344 48.097656 202.242188 47.699219 202.808594 47.230469 C 203.109375 46.988281 203.394531 46.71875 203.671875 46.433594 C 203.796875 46.746094 203.9375 47.050781 204.109375 47.332031 C 204.558594 48.082031 205.167969 48.691406 205.933594 49.15625 C 206.699219 49.621094 207.640625 49.847656 208.753906 49.832031 C 209.957031 49.8125 211.0625 49.511719 212.078125 48.917969 C 213.09375 48.328125 213.925781 47.457031 214.578125 46.308594 C 215.550781 46.308594 216.507812 46.148438 217.449219 45.828125 C 217.441406 45.929688 217.433594 46.035156 217.425781 46.132812 C 217.359375 47.015625 217.324219 47.617188 217.324219 47.933594 C 217.308594 48.480469 217.269531 49.160156 217.214844 49.96875 C 217.15625 50.773438 217.117188 51.625 217.101562 52.515625 C 217.085938 53.40625 217.117188 54.304688 217.199219 55.214844 C 217.285156 56.121094 217.457031 56.945312 217.726562 57.6875 C 217.992188 58.425781 218.371094 59.054688 218.863281 59.574219 C 219.351562 60.085938 220 60.394531 220.796875 60.496094 C 221.648438 60.613281 222.378906 60.460938 222.996094 60.046875 C 223.613281 59.628906 224.113281 59.058594 224.496094 58.335938 C 224.878906 57.609375 225.148438 56.773438 225.308594 55.824219 C 225.464844 54.875 225.511719 53.921875 225.445312 52.964844 C 225.378906 52.007812 225.203125 51.105469 224.921875 50.253906 C 224.636719 49.40625 224.246094 48.707031 223.746094 48.15625 C 224.046875 48.074219 224.402344 47.914062 224.820312 47.683594 C 225.238281 47.449219 225.664062 47.1875 226.105469 46.894531 C 226.214844 46.824219 226.324219 46.75 226.429688 46.675781 C 226.390625 47.265625 226.371094 47.683594 226.371094 47.933594 C 226.351562 48.480469 226.316406 49.160156 226.257812 49.96875 C 226.199219 50.773438 226.160156 51.625 226.144531 52.515625 C 226.128906 53.40625 226.160156 54.304688 226.246094 55.214844 C 226.328125 56.121094 226.503906 56.945312 226.769531 57.6875 C 227.035156 58.425781 227.414062 59.054688 227.90625 59.574219 C 228.398438 60.085938 229.042969 60.394531 229.84375 60.496094 C 230.691406 60.613281 231.425781 60.460938 232.039062 60.046875 C 232.65625 59.628906 233.15625 59.058594 233.539062 58.335938 C 233.921875 57.609375 234.191406 56.773438 234.351562 55.824219 C 234.511719 54.875 234.554688 53.921875 234.488281 52.964844 C 234.421875 52.007812 234.246094 51.105469 233.964844 50.253906 C 233.679688 49.40625 233.289062 48.707031 232.789062 48.15625 C 233.089844 48.074219 233.449219 47.914062 233.863281 47.683594 C 234.28125 47.449219 234.710938 47.1875 235.152344 46.894531 C 235.378906 46.742188 235.609375 46.585938 235.835938 46.425781 C 235.921875 47.242188 236.105469 47.957031 236.398438 48.554688 C 236.757812 49.289062 237.246094 49.855469 237.863281 50.253906 C 238.476562 50.65625 239.203125 50.875 240.035156 50.917969 C 240.867188 50.957031 241.777344 50.804688 242.757812 50.453125 C 243.492188 50.1875 244.128906 49.855469 244.667969 49.457031 C 245.210938 49.054688 245.699219 48.570312 246.132812 47.996094 C 246.15625 47.960938 246.179688 47.925781 246.203125 47.890625 C 246.28125 48.125 246.367188 48.347656 246.46875 48.554688 C 246.828125 49.289062 247.316406 49.855469 247.929688 50.253906 C 248.546875 50.65625 249.269531 50.875 250.105469 50.917969 C 250.9375 50.957031 251.84375 50.804688 252.828125 50.453125 C 253.558594 50.1875 254.195312 49.855469 254.738281 49.457031 C 255.28125 49.054688 255.765625 48.570312 256.199219 47.996094 C 256.632812 47.417969 257.027344 46.757812 257.386719 46.007812 C 257.746094 45.257812 258.105469 44.402344 258.472656 43.4375 C 258.539062 43.167969 258.476562 42.933594 258.285156 42.722656 Z M 258.285156 42.722656 "/>
</g>
</svg>
